<svg xmlns="http://www.w3.org/2000/svg" viewBox="0 0 53.5 50.95"><path d="M25.05,51H4.29A4.3,4.3,0,0,1,0,46.66V4.29A4.29,4.29,0,0,1,4.29,0H25.05a4.3,4.3,0,0,1,4.29,4.29v5h-3v-5A1.29,1.29,0,0,0,25.05,3H4.29A1.29,1.29,0,0,0,3,4.29V46.66A1.29,1.29,0,0,0,4.29,48H25.05a1.29,1.29,0,0,0,1.29-1.29V41.3h3v5.36A4.3,4.3,0,0,1,25.05,51Z" fill="#fff"/><path d="M46.63,12.31a2.3,2.3,0,0,1,2.29,2.3V29.29a2.3,2.3,0,0,1-2.29,2.3H13.78a2.3,2.3,0,0,1-2.3-2.3V14.61a2.3,2.3,0,0,1,2.3-2.3H46.63m0-3H13.78a5.3,5.3,0,0,0-5.3,5.3V29.29a5.3,5.3,0,0,0,5.3,5.3H46.63a5.29,5.29,0,0,0,5.29-5.3V14.61a5.29,5.29,0,0,0-5.29-5.3Z" fill="#fff"/><path d="M50.93,36.16H9.47a2.57,2.57,0,0,0,0,5.14H50.93a2.57,2.57,0,0,0,0-5.14Z" fill="#fff"/></svg>